<svg xmlns="http://www.w3.org/2000/svg" viewBox="0 0 720 496" width="720" height="496" role="img" aria-labelledby="t d" font-family="system-ui, sans-serif"><title id="t">Left hand minus right hand response by brain region</title><desc id="d">Regions more active during left hand drawing are mostly on the right side of the brain, and the reverse for the right hand.</desc><line x1="475.0" y1="26" x2="475.0" y2="454" stroke="var(--rule)" stroke-width="1"/><text x="255.0" y="18" font-size="11" fill="var(--fg-mut)">more active drawing with the RIGHT hand</text><text x="481.0" y="18" font-size="11" fill="var(--fg-mut)">more active drawing with the LEFT hand</text><text x="242" y="46" font-size="11.5" text-anchor="end" fill="var(--fg)">LH VisCent Striate 1</text><rect x="418.7" y="37" width="56.3" height="14" rx="2" fill="var(--accent-2)" fill-opacity="0.85"/><text x="412.7" y="48" font-size="10" text-anchor="end" fill="var(--fg-faint)">L</text><text x="242" y="72" font-size="11.5" text-anchor="end" fill="var(--fg)">LH VisCent ExStr 3</text><rect x="416.5" y="63" width="58.5" height="14" rx="2" fill="var(--accent-2)" fill-opacity="0.85"/><text x="410.5" y="74" font-size="10" text-anchor="end" fill="var(--fg-faint)">L</text><text x="242" y="98" font-size="11.5" text-anchor="end" fill="var(--fg)">LH SomMotB Cent 2</text><rect x="405.1" y="89" width="69.9" height="14" rx="2" fill="var(--accent-2)" fill-opacity="0.85"/><text x="399.1" y="100" font-size="10" text-anchor="end" fill="var(--fg-faint)">L</text><text x="242" y="124" font-size="11.5" text-anchor="end" fill="var(--fg)">Cerebellum 8 R</text><rect x="399.6" y="115" width="75.4" height="14" rx="2" fill="var(--accent)" fill-opacity="0.85"/><text x="393.6" y="126" font-size="10" text-anchor="end" fill="var(--fg-faint)">R</text><text x="242" y="150" font-size="11.5" text-anchor="end" fill="var(--fg)">LH SomMotA 2</text><rect x="378.9" y="141" width="96.1" height="14" rx="2" fill="var(--accent-2)" fill-opacity="0.85"/><text x="372.9" y="152" font-size="10" text-anchor="end" fill="var(--fg-faint)">L</text><text x="242" y="176" font-size="11.5" text-anchor="end" fill="var(--fg)">Cerebellum 4 5 R</text><rect x="369.7" y="167" width="105.3" height="14" rx="2" fill="var(--accent)" fill-opacity="0.85"/><text x="363.7" y="178" font-size="10" text-anchor="end" fill="var(--fg-faint)">R</text><text x="242" y="202" font-size="11.5" text-anchor="end" fill="var(--fg)">LH SomMotA 4</text><rect x="304.9" y="193" width="170.1" height="14" rx="2" fill="var(--accent-2)" fill-opacity="0.85"/><text x="298.9" y="204" font-size="10" text-anchor="end" fill="var(--fg-faint)">L</text><text x="242" y="228" font-size="11.5" text-anchor="end" fill="var(--fg)">LH SomMotA 3</text><rect x="255.0" y="219" width="220.0" height="14" rx="2" fill="var(--accent-2)" fill-opacity="0.85"/><text x="249.0" y="230" font-size="10" text-anchor="end" fill="var(--fg-faint)">L</text><text x="242" y="254" font-size="11.5" text-anchor="end" fill="var(--fg)">RH SomMotA 4</text><rect x="475.0" y="245" width="206.2" height="14" rx="2" fill="var(--accent)" fill-opacity="0.85"/><text x="687.2" y="256" font-size="10" text-anchor="start" fill="var(--fg-faint)">R</text><text x="242" y="280" font-size="11.5" text-anchor="end" fill="var(--fg)">RH SomMotA 6</text><rect x="475.0" y="271" width="160.5" height="14" rx="2" fill="var(--accent)" fill-opacity="0.85"/><text x="641.5" y="282" font-size="10" text-anchor="start" fill="var(--fg-faint)">R</text><text x="242" y="306" font-size="11.5" text-anchor="end" fill="var(--fg)">RH SomMotA 1</text><rect x="475.0" y="297" width="100.4" height="14" rx="2" fill="var(--accent)" fill-opacity="0.85"/><text x="581.4" y="308" font-size="10" text-anchor="start" fill="var(--fg-faint)">R</text><text x="242" y="332" font-size="11.5" text-anchor="end" fill="var(--fg)">RH SomMotA 11</text><rect x="475.0" y="323" width="88.0" height="14" rx="2" fill="var(--accent)" fill-opacity="0.85"/><text x="569.0" y="334" font-size="10" text-anchor="start" fill="var(--fg-faint)">R</text><text x="242" y="358" font-size="11.5" text-anchor="end" fill="var(--fg)">RH SomMotA 7</text><rect x="475.0" y="349" width="86.8" height="14" rx="2" fill="var(--accent)" fill-opacity="0.85"/><text x="567.8" y="360" font-size="10" text-anchor="start" fill="var(--fg-faint)">R</text><text x="242" y="384" font-size="11.5" text-anchor="end" fill="var(--fg)">RH SomMotA 2</text><rect x="475.0" y="375" width="81.1" height="14" rx="2" fill="var(--accent)" fill-opacity="0.85"/><text x="562.1" y="386" font-size="10" text-anchor="start" fill="var(--fg-faint)">R</text><text x="242" y="410" font-size="11.5" text-anchor="end" fill="var(--fg)">Cerebellum 4 5 L</text><rect x="475.0" y="401" width="69.8" height="14" rx="2" fill="var(--accent-2)" fill-opacity="0.85"/><text x="550.8" y="412" font-size="10" text-anchor="start" fill="var(--fg-faint)">L</text><text x="242" y="436" font-size="11.5" text-anchor="end" fill="var(--fg)">RH SomMotA 3</text><rect x="475.0" y="427" width="68.2" height="14" rx="2" fill="var(--accent)" fill-opacity="0.85"/><text x="549.2" y="438" font-size="10" text-anchor="start" fill="var(--fg-faint)">R</text><text x="250" y="480" font-size="11" fill="var(--fg-mut)">Blue bars sit in the right half of the brain, orange in the left. The sides swap with the drawing hand.</text></svg>